# xmcd
#
# Track frame offsets: 
#        150
#        12788
#        25262
#        38864
#        52478
#        63108
#        76687
#        88314
#        98827
#        110278
#
# Disc length: 1634 seconds
#
# Revision: 0
# Processed by: cddbd v1.5.2PL0 Copyright (c) Steve Scherf et al.
# Submitted via: ExactAudioCopy v1.3
#
DISCID=7606600a
DTITLE=Porter Wagoner - Sing Some Love Songs
DYEAR=1975
DGENRE=Country
TTITLE0=Just For The Lonely Ones
TTITLE1=The Late Love Of Mine
TTITLE2=She's Everywhere
TTITLE3=The Last One To Touch Me
TTITLE4=Something To Reach For
TTITLE5=Love With Feeling
TTITLE6=This Night
TTITLE7=Love To Remember
TTITLE8=If I Cross Your Mind
TTITLE9=She Left Me Love
EXTD=
EXTT0=
EXTT1=
EXTT2=
EXTT3=
EXTT4=
EXTT5=
EXTT6=
EXTT7=
EXTT8=
EXTT9=
PLAYORDER=
